HIERARCHY
ROOT Hips
{
	OFFSET 0.00000 0.00000 0.00000
	CHANNELS 6 Xposition Yposition Zposition Zrotation Yrotation Xrotation 
	JOINT LHipJoint
	{
		OFFSET 0 0 0
		CHANNELS 3 Zrotation Yrotation Xrotation
		JOINT LeftUpLeg
		{
			OFFSET 1.56857 -1.73443 1.15205
			CHANNELS 3 Zrotation Yrotation Xrotation
			JOINT LeftLeg
			{
				OFFSET 2.39362 -6.57643 0.00000
				CHANNELS 3 Zrotation Yrotation Xrotation
				JOINT LeftFoot
				{
					OFFSET 2.50952 -6.89485 0.00000
					CHANNELS 3 Zrotation Yrotation Xrotation
					JOINT LeftToeBase
					{
						OFFSET 0.17171 -0.47178 1.88682
						CHANNELS 3 Zrotation Yrotation Xrotation
						End Site
						{
							OFFSET 0.00000 -0.00000 0.98146
						}
					}
				}
			}
		}
	}
	JOINT RHipJoint
	{
		OFFSET 0 0 0
		CHANNELS 3 Zrotation Yrotation Xrotation
		JOINT RightUpLeg
		{
			OFFSET -1.28153 -1.73443 1.15205
			CHANNELS 3 Zrotation Yrotation Xrotation
			JOINT RightLeg
			{
				OFFSET -2.26861 -6.23296 0.00000
				CHANNELS 3 Zrotation Yrotation Xrotation
				JOINT RightFoot
				{
					OFFSET -2.54143 -6.98254 0.00000
					CHANNELS 3 Zrotation Yrotation Xrotation
					JOINT RightToeBase
					{
						OFFSET -0.23309 -0.64041 1.93119
						CHANNELS 3 Zrotation Yrotation Xrotation
						End Site
						{
							OFFSET -0.00000 -0.00000 1.02013
						}
					}
				}
			}
		}
	}
	JOINT LowerBack
	{
		OFFSET 0 0 0
		CHANNELS 3 Zrotation Yrotation Xrotation
		JOINT Spine
		{
			OFFSET -0.07096 2.10460 -0.27878
			CHANNELS 3 Zrotation Yrotation Xrotation
			JOINT Spine1
			{
				OFFSET -0.00826 2.13662 -0.08279
				CHANNELS 3 Zrotation Yrotation Xrotation
				JOINT Neck
				{
					OFFSET 0 0 0
					CHANNELS 3 Zrotation Yrotation Xrotation
					JOINT Neck1
					{
						OFFSET 0.03239 1.77799 0.24435
						CHANNELS 3 Zrotation Yrotation Xrotation
						JOINT Head
						{
							OFFSET 0.01026 1.74194 -0.49664
							CHANNELS 3 Zrotation Yrotation Xrotation
							End Site
							{
								OFFSET 0.00170 1.83057 -0.19653
							}
						}
					}
				}
				JOINT LeftShoulder
				{
					OFFSET 0 0 0
					CHANNELS 3 Zrotation Yrotation Xrotation
					JOINT LeftArm
					{
						OFFSET 3.19178 1.35907 -0.31412
						CHANNELS 3 Zrotation Yrotation Xrotation
						JOINT LeftForeArm
						{
							OFFSET 4.85247 -0.00000 -0.00000
							CHANNELS 3 Zrotation Yrotation Xrotation
							JOINT LeftHand
							{
								OFFSET 3.55584 -0.00000 0.00000
								CHANNELS 3 Zrotation Yrotation Xrotation
								JOINT LeftFingerBase
								{
									OFFSET 0 0 0
									CHANNELS 3 Zrotation Yrotation Xrotation
									JOINT LeftHandIndex1
									{
										OFFSET 0.69320 -0.00000 0.00000
										CHANNELS 3 Zrotation Yrotation Xrotation
										End Site
										{
											OFFSET 0.55888 -0.00000 0.00000
										}
									}
								}
								JOINT LThumb
								{
									OFFSET 0 0 0
									CHANNELS 3 Zrotation Yrotation Xrotation
									End Site
									{
										OFFSET 0.56741 -0.00000 0.56741
									}
								}
							}
						}
					}
				}
				JOINT RightShoulder
				{
					OFFSET 0 0 0
					CHANNELS 3 Zrotation Yrotation Xrotation
					JOINT RightArm
					{
						OFFSET -3.28999 1.24191 -0.26899
						CHANNELS 3 Zrotation Yrotation Xrotation
						JOINT RightForeArm
						{
							OFFSET -4.64462 -0.00000 0.00000
							CHANNELS 3 Zrotation Yrotation Xrotation
							JOINT RightHand
							{
								OFFSET -3.40703 -0.00000 0.00000
								CHANNELS 3 Zrotation Yrotation Xrotation
								JOINT RightFingerBase
								{
									OFFSET 0 0 0
									CHANNELS 3 Zrotation Yrotation Xrotation
									JOINT RightHandIndex1
									{
										OFFSET -0.61958 -0.00000 0.00000
										CHANNELS 3 Zrotation Yrotation Xrotation
										End Site
										{
											OFFSET -0.49952 -0.00000 0.00000
										}
									}
								}
								JOINT RThumb
								{
									OFFSET 0 0 0
									CHANNELS 3 Zrotation Yrotation Xrotation
									End Site
									{
										OFFSET -0.50715 -0.00000 0.50715
									}
								}
							}
						}
					}
				}
			}
		}
	}
}
MOTION
Frames: 6
Frame Time: 0.0512821
0.00 0.00 0.00 0 0 0 0 0 0 -21 0 0 0 0 0 0 0 0 0 0 0 0 0 0 21 0 0 0 0 0 0 0 0 0 0 0 0 0 0 0 0 0 0 0 0 0 0 -16 0 0 21 0 0 11 0 0 0 -8 0 0 0 0 0 0 0 0 0 0 0 0 0 0 0 0 0 0 0 0 8 0 0 0 0 0 0 0 0 0 0 0 0 0 0 0 0 0
0.00 0.00 0.00 186.9450 75.1794 186.3020 0.0000 0.0000 0.0000 -6.9205 -1.0092 -1.5748 0.5900 4.9177 13.6739 0.3235 -0.9965 -10.4389 0.9897 -6.3318 -17.7502 0.0000 0.0000 0.0000 18.9989 -10.5466 4.8594 -0.0866 -1.8980 5.2239 -1.0697 -4.7247 -21.7809 -0.3740 -3.9280 10.8743 4.6222 1.6053 7.8324 1.4242 2.6401 5.1866 -1.2906 1.5084 1.1210 6.8551 5.6522 -20.0619 -9.5235 9.2057 25.8861 -3.1844 3.7209 12.7560 0.0000 0.0000 0.0000 -85.1194 -5.5279 45.1447 15.4329 -24.7457 -3.4051 -0.0000 -0.0000 4.4846 20.1044 -24.7251 -8.7044 -7.1250 0.0000 -0.0000 -5.7205 3.9703 5.3378 0.0000 0.0000 0.0000 83.3633 4.7296 44.4386 -14.9516 24.0787 -3.2062 0.0000 0.0000 5.8999 -9.9753 -31.6189 5.2683 7.1250 -0.0000 -0.0000 25.2326 -60.1814 -9.7106
0.00 0.00 0.00 184.8730 50.5885 183.4720 0.0000 0.0000 0.0000 -2.6400 14.0366 -14.4416 1.0117 6.3996 17.9484 -0.3966 16.2889 -18.7159 0.0258 -1.0361 -2.8483 0.0000 0.0000 0.0000 19.1469 -17.7301 2.9399 -0.4318 -4.2170 11.6880 -1.7954 -14.9052 -34.3701 -0.3960 -4.0404 11.1903 2.6655 2.3626 7.4588 -1.3593 3.6633 6.1301 -3.0733 2.1108 2.4273 8.2582 6.8276 -18.7899 -13.2414 12.4419 26.3786 -4.2854 5.0300 13.4657 -0.0000 -0.0000 0.0000 -83.4721 0.1385 16.3790 8.3978 -14.1956 -1.0475 -0.0000 -0.0000 16.6369 16.5888 -22.2829 -6.4447 -7.1250 0.0000 -0.0000 -7.7123 7.0030 6.7777 -0.0000 -0.0000 0.0000 85.1176 11.7719 53.7652 -18.7390 29.0931 -4.9033 0.0000 -0.0000 -1.4286 -14.0238 -33.0507 7.7570 7.1250 -0.0000 -0.0000 22.2408 -62.4635 -9.6932
0.00 0.00 0.00 182.8190 37.5415 181.1270 0.0000 0.0000 0.0000 -12.9150 10.2056 -10.7259 1.3744 7.4191 20.9630 0.7988 5.1480 -19.5183 0.4178 -4.1488 -11.4957 0.0000 0.0000 0.0000 9.7669 -11.7705 4.6320 -2.5242 -9.8818 28.5949 -0.1607 -18.4633 -27.4225 -0.9070 -6.0690 16.9847 -4.8578 4.8321 7.0127 -5.3752 7.2724 7.0535 -3.1371 3.9447 3.6043 4.1461 4.6155 -19.9977 -9.1764 9.7715 28.3712 -2.4771 3.9318 13.6579 -0.0000 -0.0000 0.0000 -83.8087 -8.2255 12.6529 7.7416 -13.1331 -0.8925 -0.0000 -0.0000 31.8235 20.0349 -26.6184 -9.2793 -7.1250 0.0000 -0.0000 -5.9534 2.0344 5.7698 -0.0000 -0.0000 0.0000 86.4707 2.3520 43.8500 -23.2319 34.3414 -7.2687 0.0000 -0.0000 -4.4777 -11.6326 -31.3670 6.1163 7.1250 -0.0000 -0.0000 23.2979 -60.3442 -9.0059
0.00 0.00 0.00 179.4080 29.5452 178.8250 0.0000 0.0000 0.0000 -19.1710 8.4096 -4.4721 0.7825 5.6476 15.7652 0.9016 1.1101 -18.3736 0.6953 -5.3303 -14.8532 0.0000 0.0000 0.0000 6.9674 -7.5986 -4.4877 -6.4185 -14.8220 46.6389 0.0854 -10.5567 -13.6268 -1.0078 -6.3876 17.9133 -8.1393 3.4301 7.7816 -6.2463 5.5546 7.5973 -2.2199 3.0881 3.5863 2.8745 4.0375 -20.2556 -6.7844 8.7436 29.4767 -1.5063 3.6529 13.8749 0.0000 -0.0000 0.0000 -79.2446 -12.2712 22.3416 7.9941 -13.5433 -0.9507 -0.0000 -0.0000 27.5664 16.2359 -25.1210 -7.0475 -7.1250 0.0000 -0.0000 -8.1182 4.1740 7.5838 0.0000 -0.0000 0.0000 84.8140 -1.6745 46.2989 -22.7348 33.7975 -6.9902 0.0000 -0.0000 -4.9000 -12.2123 -31.5253 6.4565 7.1250 -0.0000 -0.0000 22.8241 -60.6256 -8.9650
0.00 0.00 0.00 172.1670 14.4276 178.7470 0.0000 0.0000 0.0000 -30.5308 7.7116 6.8193 0.1132 2.1697 5.9747 0.6255 -7.1326 -14.2092 0.7559 -5.5529 -15.4924 0.0000 0.0000 0.0000 11.6390 8.0443 -21.4445 -2.9383 -10.5944 30.9240 -0.6416 1.3849 -14.7209 -0.1870 -2.7852 7.6814 -13.3148 0.8422 6.8508 -5.7871 2.2108 7.6768 1.2826 1.2110 4.2289 0.0552 -0.2491 -19.9189 1.5825 0.7457 31.8068 0.9040 1.1023 14.2272 0.0000 0.0000 0.0000 -77.3539 -17.2199 39.1916 16.8588 -26.6713 -4.0238 -0.0000 0.0000 -0.3397 20.7811 -24.7967 -9.0432 -7.1250 0.0000 -0.0000 -5.3134 3.7813 4.9732 0.0000 0.0000 0.0000 84.7109 -8.0794 39.9246 -19.6162 30.1772 -5.3371 0.0000 -0.0000 -2.0830 -12.5098 -31.4286 6.5994 7.1250 -0.0000 -0.0000 22.4301 -60.6081 -8.7916
